<svg width="25" height="22" viewBox="0 0 25 22" fill="none" xmlns="http://www.w3.org/2000/svg">
<path d="M21.6241 11.218C21.1456 14.7758 17.8735 17.2721 14.3157 16.7937L13.9159 19.7669C19.1157 20.4662 23.898 16.8177 24.5973 11.6178L21.6241 11.218ZM14.3157 16.7937C10.7579 16.3152 8.26157 13.0431 8.74004 9.4853L5.76681 9.08545C5.06751 14.2853 8.71596 19.0676 13.9159 19.7669L14.3157 16.7937ZM8.74004 9.4853C9.21851 5.92748 12.4906 3.43117 16.0484 3.90964L16.4482 0.936403C11.2483 0.237105 6.4661 3.88556 5.76681 9.08545L8.74004 9.4853ZM16.0484 3.90964C19.6062 4.3881 22.1025 7.66016 21.6241 11.218L24.5973 11.6178C25.2966 6.41794 21.6481 1.6357 16.4482 0.936403L16.0484 3.90964ZM8.70247 13.5163L0.752037 19.5818L2.57169 21.9669L10.5221 15.9014L8.70247 13.5163Z" fill="#3A3A3A"/>
</svg>
