<svg width="31" height="23" viewBox="0 0 31 23" fill="none" xmlns="http://www.w3.org/2000/svg">
<path d="M22.4307 15.05L26.1213 2.0443H30.1588V0H24.3571L23.487 3.06585L0 3.05073L2.49702 15.0499L22.4307 15.05ZM22.9071 5.1098L20.6665 13.0056H4.38253L2.73669 5.09681L22.9071 5.1098Z" fill="black"/>
<path d="M19.3213 22.5C21.3242 22.5 22.9537 21.0334 22.9537 19.2308C22.9537 17.4282 21.3242 15.9617 19.3213 15.9617H5.63577C3.63285 15.9617 2.00332 17.4282 2.00332 19.2308C2.00332 21.0334 3.63282 22.5 5.63577 22.5C7.63872 22.5 9.26818 21.0334 9.26818 19.2308C9.26818 18.7979 9.17395 18.3845 9.00339 18.006H15.9537C15.7831 18.3845 15.6888 18.7979 15.6888 19.2308C15.6889 21.0334 17.3184 22.5 19.3213 22.5ZM6.99673 19.2308C6.99673 19.9062 6.38621 20.4557 5.63577 20.4557C4.88532 20.4557 4.27477 19.9062 4.27477 19.2308C4.27477 18.5554 4.88529 18.006 5.63577 18.006C6.38621 18.006 6.99673 18.5554 6.99673 19.2308ZM20.6823 19.2308C20.6823 19.9062 20.0718 20.4557 19.3213 20.4557C18.5709 20.4557 17.9603 19.9062 17.9603 19.2308C17.9603 18.5554 18.5709 18.006 19.3213 18.006C20.0718 18.006 20.6823 18.5554 20.6823 19.2308Z" fill="black"/>
</svg>
