<svg width="27" height="27" viewBox="0 0 27 27" fill="none" xmlns="http://www.w3.org/2000/svg">
<path fill-rule="evenodd" clip-rule="evenodd" d="M13.5 2.25C7.28679 2.25 2.24999 7.2868 2.24999 13.5C2.24999 19.7132 7.28679 24.75 13.5 24.75C19.7132 24.75 24.75 19.7132 24.75 13.5C24.75 7.2868 19.7132 2.25 13.5 2.25ZM0.899994 13.5C0.899994 6.54121 6.54121 0.900002 13.5 0.900002C20.4588 0.900002 26.1 6.54121 26.1 13.5C26.1 20.4588 20.4588 26.1 13.5 26.1C6.54121 26.1 0.899994 20.4588 0.899994 13.5Z" fill="black"/>
<path fill-rule="evenodd" clip-rule="evenodd" d="M13.5 5.85C11.0147 5.85 8.99999 7.86472 8.99999 10.35C8.99999 12.8353 11.0147 14.85 13.5 14.85C15.9853 14.85 18 12.8353 18 10.35C18 7.86472 15.9853 5.85 13.5 5.85ZM7.64999 10.35C7.64999 7.11914 10.2691 4.5 13.5 4.5C16.7309 4.5 19.35 7.11914 19.35 10.35C19.35 13.5809 16.7309 16.2 13.5 16.2C10.2691 16.2 7.64999 13.5809 7.64999 10.35Z" fill="black"/>
<path fill-rule="evenodd" clip-rule="evenodd" d="M13.5 16.2C11.7339 16.2 10.0112 16.7469 8.56847 17.7656C7.12577 18.7842 6.03391 20.2246 5.44292 21.8889L4.17075 21.4371C4.85505 19.5101 6.11931 17.8422 7.78981 16.6627C9.4603 15.4833 11.4551 14.85 13.5 14.85C15.5449 14.85 17.5397 15.4833 19.2102 16.6627C20.8807 17.8422 22.1449 19.5101 22.8292 21.4371L21.5571 21.8889C20.9661 20.2246 19.8742 18.7842 18.4315 17.7656C16.9888 16.7469 15.2661 16.2 13.5 16.2Z" fill="black"/>
</svg>
